<?xml version="1.0" encoding="UTF-8"?>
<svg width="64" height="64" viewBox="0 0 64 64" xmlns="http://www.w3.org/2000/svg">
    <path fill="#0b1f3a" fill-rule="evenodd" stroke="none" d="M 0 54 C 0 59.522846 4.477152 64 10 64 L 54 64 C 59.522846 64 64 59.522846 64 54 L 64 10 C 64 4.477154 59.522846 0 54 0 L 10 0 C 4.477152 0 0 4.477154 0 10 Z"/>
    <path fill="#ec8f34" fill-rule="evenodd" stroke="none" d="M 49 32 C 49 22.61116 41.38884 15 32 15 C 22.61116 15 15 22.61116 15 32 C 15 41.38884 22.61116 49 32 49 C 41.38884 49 49 41.38884 49 32 Z"/>
</svg>
